# xmcd
#
# Track frame offsets: 
#        150
#        21017
#        38527
#        53450
#        73737
#        92092
#        112447
#        125357
#        137912
#        151472
#        166305
#        183695
#        198642
#
# Disc length: 2845 seconds
#
# Revision: 2
# Processed by: cddbd v1.5.2PL0 Copyright (c) Steve Scherf et al.
# Submitted via: ExactAudioCopy v0.99pb5
#
DISCID=b80b1b0d
DTITLE=Lisa Miller - Car Tape
DYEAR=2002
DGENRE=Country
TTITLE0=The Boy That Radiates That Charm
TTITLE1=Why Not Your Baby?
TTITLE2=Words For Sadness
TTITLE3=Better Days (Theme From Man and Boy)
TTITLE4=Have A Little Mercy
TTITLE5=Evil
TTITLE6=Something On Your Mind
TTITLE7=Nothing Takes The Place Of You
TTITLE8=Give Back The Key To My Heart
TTITLE9=Nobody Knows Me
TTITLE10=Say You Don't Mind
TTITLE11=No Place To Fall
TTITLE12=We Love Each Other
EXTD=An Album of Covers performed by Lisa Miller
EXTT0=Arthur Alexander
EXTT1=Dillard and Clark
EXTT2=Tim Rogers
EXTT3=Bill Withers
EXTT4=Jean Wells
EXTT5=Steve Miller
EXTT6=Karen Dalton
EXTT7=Toussaint McCall
EXTT8=Doug Sahm
EXTT9=Lyle Lovett
EXTT10=Colin Blunstone
EXTT11=Townes Van Zandt
EXTT12=Charlie Rich
PLAYORDER=
